<?xml version="1.0" encoding="iso-8859-1"?>
<!-- Generator: Adobe Illustrator 19.0.0, SVG Export Plug-In . SVG Version: 6.00 Build 0)  -->
<svg xmlns="http://www.w3.org/2000/svg" xmlns:xlink="http://www.w3.org/1999/xlink" version="1.1" id="Capa_1" x="0px" y="0px" viewBox="0 0 448 448" style="enable-background:new 0 0 448 448;" xml:space="preserve" width="512px" height="512px">
<g>
	<g>
		<path d="M373.333,0H74.667C51.093,0,32,19.093,32,42.667v298.667C32,364.907,51.093,384,74.667,384H160l64,64l64-64h85.333    C396.907,384,416,364.907,416,341.333V42.667C416,19.093,396.907,0,373.333,0z M245.333,341.333h-42.667v-42.667h42.667V341.333z     M289.387,176.107l-19.093,19.627c-15.36,15.36-24.96,28.267-24.96,60.267h-42.667v-10.667c0-23.573,9.6-44.907,24.96-60.373    l26.56-26.88c7.68-7.68,12.48-18.347,12.48-30.08c0-23.573-19.093-42.667-42.667-42.667S181.333,104.427,181.333,128h-42.667    c0-47.147,38.187-85.333,85.333-85.333S309.333,80.853,309.333,128C309.333,146.773,301.76,163.733,289.387,176.107z" fill="#757575"/>
	</g>
</g>
<g>
</g>
<g>
</g>
<g>
</g>
<g>
</g>
<g>
</g>
<g>
</g>
<g>
</g>
<g>
</g>
<g>
</g>
<g>
</g>
<g>
</g>
<g>
</g>
<g>
</g>
<g>
</g>
<g>
</g>
</svg>
